<svg xmlns="http://www.w3.org/2000/svg" viewBox="0 0 1024 1024" role="img" aria-label="ЯЧат">
  <path fill="#ffffff" fill-rule="evenodd" d="M432 742 L440 732 L441 728 L451 713 L451 711 L452 710 L453 711 L452 710 L457 704 L456 703 L461 700 L462 693 L463 692 L464 693 L466 691 L470 681 L476 678 L480 667 L484 664 L483 663 L484 662 L486 663 L488 657 L490 656 L494 648 L493 647 L496 646 L499 643 L498 642 L500 640 L501 642 L508 635 L508 633 L511 631 L514 632 L517 630 L522 630 L524 628 L526 629 L527 627 L528 628 L530 627 L532 628 L535 626 L536 628 L537 626 L538 627 L539 626 L541 628 L546 626 L551 628 L553 626 L558 629 L560 627 L562 627 L564 629 L565 628 L567 631 L568 630 L566 629 L567 628 L571 628 L572 629 L571 631 L570 630 L571 631 L574 630 L578 634 L580 633 L581 634 L580 636 L581 634 L584 636 L583 637 L589 641 L590 646 L594 647 L593 651 L596 654 L595 655 L597 656 L596 658 L598 659 L596 660 L598 661 L599 665 L598 666 L599 668 L598 670 L599 671 L600 670 L602 672 L602 679 L603 680 L602 682 L604 683 L603 686 L606 695 L605 698 L606 699 L606 709 L607 710 L607 719 L608 720 L608 751 L608 615 L507 615 L485 652 L482 659 L478 664 L476 669 L451 710 L448 717 L441 727 L441 729 Z M719 265 L718 265 L725 279 L727 287 L727 295 L728 296 L728 674 L727 675 L728 677 L726 684 L720 693 L686 725 L681 731 L666 744 L684 728 L687 727 L687 725 L695 719 L719 695 L725 687 L728 679 L728 612 L729 611 L728 610 L729 606 L728 605 L728 599 L729 598 L728 597 L728 592 L729 591 L728 588 L729 585 L728 584 L729 582 L728 581 L729 579 L728 577 L729 574 L728 573 L729 572 L728 571 L729 570 L728 568 L729 557 L728 556 L729 555 L728 553 L730 551 L729 550 L730 548 L728 544 L730 543 L729 542 L730 541 L728 540 L730 538 L730 535 L728 532 L728 527 L729 526 L728 525 L728 519 L729 518 L728 517 L728 510 L729 509 L728 508 L728 454 L729 453 L728 452 L728 440 L730 435 L728 432 L729 429 L728 428 L729 427 L728 426 L728 414 L729 413 L728 412 L728 391 L729 390 L728 389 L728 383 L729 382 L728 380 L729 377 L728 376 L729 374 L728 373 L728 346 L730 345 L728 344 L729 342 L728 341 L728 293 L727 292 L726 282 L719 267 Z M703 251 L687 241 L671 236 L497 236 L496 237 L476 238 L475 239 L463 240 L440 246 L436 246 L408 256 L406 258 L396 262 L368 281 L344 305 L333 320 L324 335 L324 337 L314 359 L314 362 L310 372 L309 380 L307 385 L306 397 L305 398 L305 406 L304 407 L304 446 L305 447 L305 455 L306 456 L306 463 L308 469 L308 474 L312 486 L312 489 L319 508 L331 531 L347 553 L363 569 L379 582 L391 590 L398 593 L399 595 L354 663 L322 716 L313 729 L306 742 L300 750 L425 750 L428 743 L446 715 L452 703 L460 691 L466 679 L477 662 L505 613 L511 613 L512 612 L514 613 L518 613 L519 612 L520 613 L526 613 L527 612 L528 613 L532 612 L536 613 L537 612 L538 613 L541 612 L542 613 L543 612 L545 613 L547 612 L551 612 L552 613 L554 612 L575 612 L576 613 L580 613 L581 612 L584 613 L586 612 L609 612 L611 614 L611 750 L650 750 L658 747 L692 717 L720 689 L723 684 L725 677 L725 296 L724 295 L724 287 L721 276 L714 263 Z M591 287 L595 289 L601 295 L603 299 L603 305 L608 308 L615 315 L620 323 L623 337 L622 338 L621 355 L619 360 L623 366 L630 381 L636 403 L636 410 L637 411 L637 434 L636 435 L636 440 L630 462 L622 479 L613 492 L595 510 L587 516 L573 524 L558 530 L546 533 L541 533 L540 534 L518 535 L517 534 L508 534 L507 533 L502 533 L494 531 L471 522 L450 508 L434 492 L423 476 L413 453 L409 437 L409 430 L408 429 L408 404 L409 403 L409 398 L413 382 L422 362 L433 346 L450 329 L461 321 L478 312 L496 306 L507 305 L508 304 L529 304 L530 305 L537 305 L538 306 L547 307 L557 296 L569 289 L580 286 Z M604 477 L598 480 L586 483 L577 483 L564 480 L556 476 L544 465 L537 452 L533 460 L520 473 L511 478 L497 482 L480 483 L479 482 L471 482 L470 481 L462 480 L447 474 L436 466 L442 477 L449 486 L464 500 L476 508 L489 514 L507 519 L514 519 L515 520 L540 519 L560 513 L572 507 L586 497 Z M554 496 L554 500 L548 506 L544 508 L535 508 L531 506 L526 501 L526 497 L528 495 L531 495 L534 498 L537 499 L542 499 L546 497 L550 493 Z M428 412 L425 419 L425 426 L424 427 L428 443 L433 450 L440 457 L447 462 L457 467 L477 472 L494 472 L495 471 L499 471 L516 463 L523 456 L528 447 L529 443 L529 430 L525 420 L521 414 L515 408 L499 398 L480 393 L461 393 L449 396 L439 401 Z M506 429 L514 429 L520 434 L522 438 L521 447 L516 452 L509 452 L505 450 L500 443 L501 433 Z M575 385 L565 388 L560 391 L553 397 L548 404 L543 419 L543 436 L546 448 L550 456 L557 464 L567 470 L574 472 L590 472 L603 466 L609 461 L614 454 L618 445 L619 437 L620 436 L620 417 L616 405 L612 399 L606 393 L600 389 L588 385 Z M579 426 L581 425 L588 425 L595 430 L597 434 L597 443 L593 448 L591 449 L584 449 L576 442 L575 440 L575 432 Z M610 320 L610 348 L613 353 L614 353 L615 332 L614 331 L614 327 Z M425 401 L431 395 L447 386 L464 382 L477 382 L478 383 L484 383 L485 384 L493 385 L510 392 L520 399 L529 408 L533 415 L536 405 L543 393 L556 381 L570 375 L574 375 L575 374 L593 375 L607 381 L616 388 L608 370 L600 358 L591 348 L576 336 L559 327 L537 320 L531 320 L530 319 L511 319 L510 320 L500 321 L485 326 L471 333 L460 341 L445 356 L436 369 L429 384 Z M601 313 L600 314 L601 316 L600 337 L603 341 L603 314 Z M559 305 L555 310 L567 315 L567 300 Z M586 295 L586 299 L587 300 L586 302 L587 303 L587 327 L594 332 L593 331 L593 297 L589 295 Z M577 295 L573 297 L573 318 L580 322 L580 295 Z M705 249 L694 241 L692 241 L680 235 L676 235 L671 233 L648 233 L647 232 L535 232 L534 233 L532 232 L528 232 L527 233 L522 233 L521 232 L515 233 L512 232 L511 233 L505 233 L503 232 L502 233 L494 233 L493 234 L481 234 L474 236 L466 236 L457 239 L450 239 L447 241 L443 241 L431 245 L428 245 L425 247 L422 247 L412 252 L410 252 L405 255 L400 256 L397 259 L395 259 L393 261 L386 264 L362 282 L354 289 L337 309 L327 325 L324 328 L324 330 L319 338 L319 340 L312 355 L311 361 L306 374 L305 384 L303 389 L302 405 L301 406 L301 418 L300 419 L300 423 L301 424 L301 448 L302 449 L302 456 L304 463 L303 465 L304 466 L306 480 L311 496 L313 499 L313 502 L315 504 L316 509 L320 516 L320 519 L322 520 L324 526 L329 533 L328 535 L331 536 L332 540 L335 542 L342 552 L345 554 L344 555 L348 558 L350 562 L353 565 L354 564 L360 574 L361 573 L366 578 L368 583 L369 581 L373 587 L376 589 L376 591 L378 591 L381 594 L380 595 L382 597 L381 598 L383 599 L380 600 L381 601 L380 603 L382 605 L379 609 L380 610 L376 616 L375 622 L369 630 L370 631 L368 632 L368 635 L366 637 L367 638 L365 640 L363 640 L363 642 L361 644 L362 645 L359 648 L359 651 L353 657 L350 665 L345 673 L343 674 L343 676 L335 687 L335 689 L331 694 L329 699 L309 731 L356 655 L393 599 L396 596 L396 595 L391 593 L366 575 L344 553 L327 530 L318 513 L312 498 L305 474 L303 456 L302 455 L302 447 L301 446 L301 408 L302 407 L302 398 L303 397 L304 385 L309 365 L311 362 L311 359 L319 339 L328 323 L339 307 L364 281 L378 270 L396 259 L429 245 L444 242 L448 240 L468 237 L469 236 L497 234 L498 233 L671 233 L685 237 L698 244 L706 250 L717 263 L713 257 Z"/>
</svg>
