<svg xmlns="http://www.w3.org/2000/svg" viewBox="0 0 1024 1024" role="img" aria-label="ЯЧат">
  <defs>
    <linearGradient id="bg" x1="90" y1="934" x2="934" y2="90" gradientUnits="userSpaceOnUse">
      <stop offset="0" stop-color="#13b9ee"/>
      <stop offset="0.42" stop-color="#2368ff"/>
      <stop offset="0.72" stop-color="#5628f4"/>
      <stop offset="1" stop-color="#c128e6"/>
    </linearGradient>
    <clipPath id="round"><rect width="1024" height="1024" rx="190"/></clipPath>
  </defs>
  <g clip-path="url(#round)">
    <rect width="1024" height="1024" fill="url(#bg)"/>
    <path fill="#fff" fill-rule="evenodd" d="M748 783 L740 784 L740 798 L738 803 L735 806 L729 808 L721 806 L719 810 L719 813 L725 815 L733 815 L739 813 L744 809 L748 801 Z M719 226 L705 217 L689 212 L488 212 L487 213 L475 213 L474 214 L454 216 L439 220 L435 220 L410 228 L375 245 L343 269 L317 298 L303 320 L294 338 L285 362 L279 386 L277 405 L276 406 L275 440 L276 441 L277 464 L278 465 L278 471 L281 486 L286 501 L286 504 L295 528 L313 561 L324 576 L348 601 L368 616 L388 627 L389 629 L276 809 L407 809 L411 804 L413 799 L477 692 L481 687 L486 677 L505 648 L618 648 L619 649 L619 808 L620 809 L663 809 L676 804 L735 747 L738 743 L742 733 L742 268 L739 255 L736 248 L730 238 Z M602 275 L610 282 L613 291 L613 297 L619 300 L628 309 L632 316 L634 323 L634 339 L629 354 L635 363 L641 377 L648 403 L648 409 L649 410 L648 445 L641 470 L635 483 L623 502 L605 521 L587 534 L561 546 L537 551 L511 551 L487 546 L462 535 L442 521 L427 506 L415 489 L406 471 L402 459 L398 440 L398 409 L402 390 L406 378 L414 361 L425 344 L444 324 L462 311 L473 305 L492 298 L513 294 L537 294 L552 297 L566 283 L579 276 L586 274 L599 274 Z M611 489 L610 488 L603 492 L594 494 L583 494 L568 490 L556 482 L549 475 L544 468 L540 458 L539 458 L538 462 L533 470 L520 482 L504 490 L492 493 L475 494 L474 493 L467 493 L458 491 L441 484 L429 476 L442 496 L460 513 L474 522 L496 531 L511 534 L545 533 L566 526 L581 518 L592 510 L605 497 Z M531 513 L531 509 L533 507 L536 507 L542 513 L547 512 L551 507 L555 507 L558 510 L557 513 L551 519 L547 521 L540 521 L535 518 Z M420 416 L416 427 L416 438 L421 452 L427 460 L436 468 L457 479 L469 482 L489 482 L502 479 L517 471 L526 462 L531 453 L532 435 L525 420 L514 409 L505 403 L485 395 L472 394 L471 393 L451 395 L434 402 Z M509 434 L518 435 L523 443 L522 452 L518 457 L513 459 L509 458 L504 453 L502 447 L504 439 Z M583 384 L576 386 L567 391 L554 405 L547 421 L546 442 L548 451 L555 465 L566 476 L579 482 L593 483 L601 481 L609 477 L621 465 L628 450 L630 441 L631 426 L630 425 L629 415 L626 407 L621 399 L613 391 L604 386 L597 384 Z M593 428 L600 429 L605 434 L607 439 L605 449 L601 453 L596 455 L589 453 L584 446 L584 437 L586 433 Z M622 317 L620 326 L619 340 L623 344 L626 334 L626 326 Z M626 389 L622 377 L616 365 L608 353 L587 332 L571 322 L551 314 L537 311 L520 310 L519 311 L503 312 L491 315 L478 320 L461 330 L448 341 L440 350 L431 363 L422 381 L416 403 L429 393 L443 386 L456 383 L479 383 L496 387 L511 394 L522 402 L530 410 L537 421 L539 412 L549 394 L561 382 L576 374 L584 372 L601 373 L613 378 L619 382 Z M609 304 L606 326 L613 332 L616 309 Z M574 289 L567 294 L562 300 L572 304 Z M597 283 L593 316 L600 320 L602 299 L603 298 L603 287 L601 284 Z M589 283 L585 284 L581 287 L581 295 L579 307 L586 311 Z"/>
  </g>
</svg>
