<svg xmlns="http://www.w3.org/2000/svg" viewBox="0 0 1024 1024" role="img" aria-label="ЯЧат">
  <path fill="#000000" fill-rule="evenodd" d="M731 764 L724 764 L723 765 L723 778 L719 784 L715 786 L709 786 L705 784 L703 790 L707 792 L719 792 L726 788 L730 781 L730 776 L731 775 L731 767 L730 765 Z M697 244 L687 239 L676 236 L489 236 L488 237 L469 238 L468 239 L462 239 L461 240 L447 242 L435 245 L410 254 L380 270 L359 286 L342 303 L328 321 L320 334 L310 354 L309 359 L305 367 L299 388 L296 409 L295 410 L294 454 L295 455 L296 473 L297 474 L297 479 L300 489 L300 493 L311 526 L322 548 L339 573 L365 599 L385 613 L392 616 L399 621 L294 787 L415 787 L479 680 L483 675 L485 670 L489 665 L501 644 L506 638 L507 639 L611 639 L612 640 L612 782 L611 783 L612 787 L650 787 L661 784 L667 780 L720 728 L723 723 L725 716 L725 290 L724 289 L723 279 L717 265 L708 253 Z M593 293 L601 298 L605 305 L605 311 L606 312 L605 313 L611 317 L619 325 L624 334 L625 338 L625 344 L626 345 L625 347 L625 354 L621 364 L621 368 L623 370 L633 392 L633 395 L637 407 L638 421 L639 422 L638 451 L635 464 L630 478 L616 502 L601 519 L587 530 L562 543 L537 549 L508 549 L507 548 L502 548 L490 545 L479 541 L465 534 L453 526 L432 506 L421 490 L413 473 L407 449 L406 424 L407 423 L407 416 L408 415 L408 410 L411 398 L419 378 L433 356 L447 341 L466 327 L480 320 L498 314 L508 313 L509 312 L518 312 L519 311 L529 311 L530 312 L539 312 L540 313 L549 314 L560 303 L574 295 L580 293 Z M604 491 L592 496 L585 496 L584 497 L574 496 L562 492 L553 486 L547 480 L542 473 L538 464 L537 464 L532 474 L519 486 L507 492 L491 496 L473 496 L472 495 L463 494 L444 486 L435 479 L438 485 L449 500 L458 509 L473 520 L496 530 L509 533 L518 533 L519 534 L544 532 L557 528 L570 522 L586 511 L598 499 Z M529 511 L532 508 L534 508 L539 513 L542 514 L549 508 L552 508 L554 510 L554 514 L548 520 L540 522 L535 520 L530 515 Z M428 423 L424 432 L423 443 L425 451 L429 459 L439 470 L451 478 L458 481 L472 485 L491 485 L492 484 L501 483 L518 474 L524 468 L530 457 L530 453 L531 452 L530 440 L524 428 L510 415 L496 408 L481 404 L461 404 L460 405 L456 405 L441 411 L434 416 Z M511 440 L517 441 L522 447 L522 457 L515 464 L509 463 L504 458 L503 455 L503 449 L505 445 Z M577 395 L573 396 L562 402 L554 410 L547 422 L544 433 L544 450 L550 466 L554 472 L560 478 L573 485 L587 486 L595 484 L601 481 L611 472 L616 464 L621 448 L621 442 L622 441 L622 434 L621 433 L621 426 L618 417 L613 409 L606 402 L595 396 L591 395 Z M587 435 L591 435 L595 437 L600 445 L599 454 L592 460 L584 459 L580 455 L578 450 L578 446 L580 441 Z M614 333 L611 354 L615 358 L616 350 L617 349 L617 339 Z M424 412 L438 401 L450 396 L458 394 L465 394 L466 393 L484 394 L504 400 L516 407 L530 420 L535 429 L537 420 L542 410 L547 403 L557 393 L567 387 L577 384 L593 384 L604 388 L610 392 L617 399 L614 389 L603 369 L589 353 L576 343 L561 335 L544 329 L532 328 L531 327 L514 327 L513 328 L505 328 L485 334 L473 340 L460 349 L446 363 L437 376 L428 395 Z M602 321 L601 333 L600 334 L600 342 L605 347 L608 325 Z M569 308 L558 317 L568 320 Z M583 302 L577 304 L576 314 L575 315 L575 322 L574 323 L581 327 Z M591 301 L590 302 L590 313 L589 314 L588 330 L587 331 L593 336 L594 325 L595 324 L595 316 L596 315 L596 305 Z"/>
</svg>
