<svg xmlns="http://www.w3.org/2000/svg" viewBox="0 0 1254 1254" role="img" aria-label="ЯЧат"><title>ЯЧат</title><rect width="1254" height="1254" fill="#ffffff"/><path d="M 917 959 L 912 959 L 911 960 L 907 960 L 906 961 L 906 977 L 905 978 L 905 981 L 900 987 L 898 988 L 896 988 L 895 989 L 890 989 L 889 988 L 886 988 L 885 987 L 883 987 L 880 993 L 880 995 L 886 998 L 900 998 L 901 997 L 903 997 L 907 995 L 912 990 L 916 982 L 916 979 L 917 978 Z M 881 277 L 880 277 L 877 274 L 876 274 L 871 270 L 868 269 L 866 267 L 862 265 L 860 265 L 854 262 L 847 261 L 846 260 L 838 260 L 837 259 L 824 259 L 823 260 L 592 260 L 591 261 L 580 261 L 579 262 L 572 262 L 571 263 L 565 263 L 564 264 L 559 264 L 558 265 L 553 265 L 552 266 L 548 266 L 547 267 L 543 267 L 542 268 L 539 268 L 538 269 L 535 269 L 534 270 L 527 271 L 523 273 L 520 273 L 519 274 L 517 274 L 516 275 L 514 275 L 513 276 L 508 277 L 505 279 L 500 280 L 490 285 L 488 285 L 468 295 L 466 297 L 461 299 L 456 303 L 453 304 L 451 306 L 447 308 L 444 311 L 443 311 L 440 314 L 439 314 L 436 317 L 435 317 L 431 321 L 430 321 L 425 326 L 424 326 L 402 348 L 402 349 L 397 354 L 397 355 L 389 364 L 389 365 L 387 367 L 387 368 L 385 370 L 385 371 L 377 382 L 376 385 L 374 387 L 372 392 L 370 394 L 360 414 L 360 416 L 355 426 L 355 428 L 354 429 L 354 431 L 353 432 L 353 434 L 352 435 L 352 437 L 351 438 L 351 440 L 350 441 L 350 443 L 348 447 L 348 450 L 347 451 L 347 453 L 346 454 L 346 457 L 345 458 L 345 461 L 344 462 L 343 471 L 342 472 L 342 475 L 341 476 L 341 481 L 340 482 L 340 488 L 339 489 L 339 496 L 338 497 L 338 509 L 337 510 L 337 544 L 338 545 L 338 559 L 339 560 L 339 567 L 340 568 L 340 574 L 341 575 L 341 580 L 342 581 L 343 590 L 344 591 L 344 594 L 345 595 L 345 598 L 346 599 L 346 602 L 347 603 L 348 610 L 349 611 L 349 613 L 350 614 L 350 616 L 351 617 L 351 619 L 352 620 L 352 622 L 353 623 L 353 625 L 354 626 L 354 628 L 355 629 L 356 634 L 361 644 L 361 646 L 372 668 L 374 670 L 376 675 L 378 677 L 382 685 L 387 691 L 387 692 L 389 694 L 391 698 L 399 707 L 399 708 L 404 713 L 404 714 L 427 737 L 428 737 L 437 745 L 441 747 L 444 750 L 445 750 L 453 756 L 456 757 L 458 759 L 466 763 L 468 765 L 475 768 L 477 770 L 474 773 L 470 781 L 466 786 L 462 794 L 458 799 L 457 802 L 453 807 L 452 810 L 448 815 L 447 818 L 443 823 L 442 826 L 438 831 L 434 839 L 432 841 L 429 847 L 423 855 L 422 858 L 418 863 L 417 866 L 413 871 L 412 874 L 404 885 L 403 888 L 399 893 L 398 896 L 396 898 L 396 899 L 388 910 L 387 913 L 383 918 L 382 921 L 376 929 L 375 932 L 369 940 L 368 943 L 362 951 L 361 954 L 359 956 L 359 957 L 355 962 L 354 965 L 348 973 L 347 976 L 341 984 L 340 987 L 338 989 L 338 991 L 499 991 L 501 989 L 502 986 L 504 984 L 506 979 L 508 977 L 509 974 L 511 972 L 512 969 L 514 967 L 515 964 L 517 962 L 518 959 L 520 957 L 522 952 L 524 950 L 525 947 L 527 945 L 528 942 L 530 940 L 532 935 L 536 930 L 537 927 L 539 925 L 540 922 L 542 920 L 543 917 L 545 915 L 547 910 L 551 905 L 553 900 L 557 895 L 562 885 L 566 880 L 567 877 L 569 875 L 570 872 L 572 870 L 573 867 L 575 865 L 576 862 L 578 860 L 579 857 L 581 855 L 582 852 L 584 850 L 585 847 L 587 845 L 588 842 L 590 840 L 591 837 L 593 835 L 594 832 L 596 830 L 600 822 L 604 817 L 608 809 L 610 807 L 610 806 L 612 804 L 612 803 L 614 801 L 615 798 L 618 794 L 757 794 L 758 795 L 758 990 L 759 991 L 812 991 L 813 990 L 817 990 L 818 989 L 820 989 L 826 986 L 832 981 L 833 981 L 878 936 L 879 936 L 902 913 L 902 912 L 904 910 L 907 904 L 907 902 L 908 901 L 908 898 L 909 897 L 909 329 L 908 328 L 908 323 L 907 322 L 906 315 L 905 314 L 905 312 L 903 309 L 903 307 L 899 299 L 897 297 L 894 291 Z M 739 338 L 745 343 L 745 344 L 748 348 L 748 350 L 750 354 L 750 363 L 754 366 L 757 367 L 762 372 L 763 372 L 765 374 L 765 375 L 771 382 L 774 388 L 774 390 L 776 394 L 776 398 L 777 399 L 777 410 L 776 411 L 776 416 L 775 417 L 775 420 L 774 421 L 774 423 L 773 424 L 773 426 L 772 427 L 772 429 L 770 433 L 773 437 L 774 440 L 776 442 L 781 452 L 781 454 L 783 457 L 783 459 L 785 462 L 785 464 L 786 465 L 786 467 L 788 471 L 789 478 L 791 482 L 791 486 L 792 487 L 792 491 L 793 492 L 793 497 L 794 498 L 794 506 L 795 507 L 795 530 L 794 531 L 794 541 L 793 542 L 793 547 L 792 548 L 792 552 L 791 553 L 790 560 L 789 561 L 789 563 L 788 564 L 788 566 L 787 567 L 787 569 L 786 570 L 785 575 L 783 578 L 783 580 L 775 596 L 773 598 L 772 601 L 770 603 L 770 604 L 768 606 L 768 607 L 766 609 L 764 613 L 755 623 L 755 624 L 743 636 L 742 636 L 736 642 L 735 642 L 728 648 L 727 648 L 722 652 L 717 654 L 715 656 L 701 663 L 699 663 L 691 667 L 689 667 L 685 669 L 682 669 L 678 671 L 675 671 L 674 672 L 670 672 L 669 673 L 663 673 L 662 674 L 651 674 L 650 675 L 632 675 L 631 674 L 622 674 L 621 673 L 615 673 L 614 672 L 610 672 L 609 671 L 602 670 L 601 669 L 599 669 L 598 668 L 596 668 L 595 667 L 593 667 L 592 666 L 587 665 L 584 663 L 582 663 L 566 655 L 564 653 L 561 652 L 559 650 L 558 650 L 556 648 L 552 646 L 545 640 L 544 640 L 534 630 L 533 630 L 530 627 L 530 626 L 522 618 L 522 617 L 516 610 L 516 609 L 510 601 L 509 598 L 507 596 L 499 580 L 499 578 L 497 575 L 497 573 L 496 572 L 496 570 L 495 569 L 495 567 L 493 563 L 493 560 L 492 559 L 492 556 L 491 555 L 491 553 L 490 552 L 490 548 L 489 547 L 489 541 L 488 540 L 488 531 L 487 530 L 487 510 L 488 509 L 488 500 L 489 499 L 489 494 L 490 493 L 490 489 L 491 488 L 491 485 L 492 484 L 493 477 L 494 476 L 494 474 L 495 473 L 495 471 L 496 470 L 497 465 L 499 462 L 499 460 L 503 453 L 503 451 L 507 443 L 509 441 L 513 433 L 515 431 L 517 427 L 520 424 L 522 420 L 528 414 L 528 413 L 543 398 L 544 398 L 549 393 L 550 393 L 553 390 L 554 390 L 557 387 L 558 387 L 563 383 L 566 382 L 568 380 L 584 372 L 586 372 L 589 370 L 591 370 L 592 369 L 594 369 L 595 368 L 597 368 L 601 366 L 604 366 L 605 365 L 608 365 L 609 364 L 612 364 L 613 363 L 616 363 L 617 362 L 622 362 L 623 361 L 633 361 L 634 360 L 651 360 L 652 361 L 662 361 L 663 362 L 668 362 L 669 363 L 673 363 L 674 364 L 676 364 L 680 360 L 680 359 L 691 349 L 692 349 L 698 344 L 710 338 L 713 338 L 717 336 L 734 336 L 737 338 Z M 749 598 L 749 597 L 744 600 L 742 600 L 736 603 L 733 603 L 732 604 L 726 604 L 725 605 L 717 605 L 716 604 L 709 604 L 708 603 L 705 603 L 704 602 L 699 601 L 696 599 L 694 599 L 692 597 L 689 596 L 683 591 L 682 591 L 673 582 L 673 581 L 670 578 L 670 577 L 666 572 L 661 561 L 660 561 L 659 563 L 659 565 L 657 569 L 653 574 L 653 575 L 641 587 L 637 589 L 634 592 L 622 598 L 620 598 L 619 599 L 617 599 L 616 600 L 614 600 L 610 602 L 606 602 L 605 603 L 600 603 L 599 604 L 575 604 L 574 603 L 569 603 L 568 602 L 561 601 L 560 600 L 558 600 L 557 599 L 552 598 L 549 596 L 547 596 L 541 593 L 539 591 L 536 590 L 525 582 L 530 592 L 532 594 L 534 598 L 537 601 L 537 602 L 540 605 L 540 606 L 552 619 L 553 619 L 564 629 L 565 629 L 573 635 L 576 636 L 578 638 L 588 643 L 590 643 L 595 646 L 597 646 L 600 648 L 602 648 L 606 650 L 609 650 L 613 652 L 617 652 L 618 653 L 623 653 L 624 654 L 631 654 L 632 655 L 649 655 L 650 654 L 661 654 L 662 653 L 667 653 L 668 652 L 675 651 L 676 650 L 678 650 L 679 649 L 681 649 L 682 648 L 687 647 L 690 645 L 692 645 L 706 638 L 708 636 L 711 635 L 713 633 L 717 631 L 725 624 L 726 624 L 741 609 L 741 608 L 745 604 L 745 603 Z M 650 628 L 650 624 L 653 621 L 656 621 L 663 628 L 669 628 L 676 621 L 680 621 L 683 625 L 681 630 L 676 635 L 672 637 L 670 637 L 669 638 L 663 638 L 662 637 L 660 637 L 658 636 L 656 634 L 655 634 Z M 514 510 L 513 512 L 513 514 L 510 520 L 510 525 L 509 526 L 509 534 L 510 535 L 510 540 L 511 541 L 512 546 L 517 556 L 520 559 L 520 560 L 531 571 L 532 571 L 535 574 L 536 574 L 541 578 L 544 579 L 546 581 L 550 583 L 552 583 L 555 585 L 557 585 L 560 587 L 562 587 L 563 588 L 566 588 L 567 589 L 570 589 L 571 590 L 576 590 L 577 591 L 597 591 L 598 590 L 604 590 L 605 589 L 608 589 L 609 588 L 611 588 L 612 587 L 617 586 L 629 580 L 635 575 L 636 575 L 643 568 L 643 567 L 647 562 L 650 556 L 650 554 L 651 553 L 651 550 L 652 549 L 652 534 L 651 533 L 651 530 L 650 529 L 650 527 L 646 519 L 644 517 L 642 513 L 630 501 L 629 501 L 626 498 L 623 497 L 621 495 L 618 494 L 616 492 L 612 490 L 610 490 L 607 488 L 605 488 L 602 486 L 599 486 L 598 485 L 596 485 L 595 484 L 592 484 L 591 483 L 586 483 L 585 482 L 561 482 L 560 483 L 555 483 L 554 484 L 551 484 L 550 485 L 548 485 L 547 486 L 542 487 L 532 492 L 529 495 L 528 495 L 525 498 L 524 498 L 518 504 L 518 505 Z M 627 531 L 630 531 L 634 533 L 637 536 L 640 542 L 640 551 L 638 555 L 632 561 L 624 561 L 619 557 L 619 556 L 616 552 L 616 541 L 618 537 L 622 533 L 624 532 L 626 532 Z M 715 470 L 714 471 L 710 471 L 709 472 L 707 472 L 699 476 L 697 478 L 693 480 L 682 491 L 682 492 L 678 497 L 672 509 L 672 511 L 670 515 L 670 519 L 669 520 L 669 527 L 668 528 L 668 535 L 669 536 L 669 544 L 670 545 L 670 548 L 671 549 L 671 552 L 672 553 L 672 555 L 678 567 L 683 573 L 683 574 L 693 583 L 694 583 L 696 585 L 704 589 L 706 589 L 710 591 L 715 591 L 716 592 L 725 592 L 726 591 L 731 591 L 732 590 L 737 589 L 745 585 L 747 583 L 748 583 L 759 572 L 759 571 L 763 566 L 767 558 L 767 556 L 768 555 L 768 553 L 770 549 L 770 545 L 771 544 L 771 540 L 772 539 L 772 531 L 773 530 L 773 522 L 772 521 L 772 515 L 771 514 L 771 510 L 770 509 L 770 507 L 769 506 L 768 501 L 765 495 L 763 493 L 761 489 L 751 479 L 735 471 L 732 471 L 731 470 Z M 725 525 L 733 525 L 735 526 L 741 532 L 742 534 L 742 536 L 743 537 L 743 544 L 742 545 L 742 547 L 740 551 L 737 554 L 733 556 L 731 556 L 730 557 L 728 557 L 727 556 L 724 556 L 722 555 L 718 551 L 716 547 L 716 545 L 715 544 L 715 538 L 716 537 L 717 532 L 723 526 Z M 761 388 L 761 393 L 760 394 L 760 402 L 759 403 L 759 410 L 758 411 L 758 416 L 760 418 L 760 419 L 763 422 L 764 422 L 764 419 L 765 418 L 765 415 L 766 414 L 766 410 L 767 409 L 767 400 L 766 399 L 766 396 L 765 395 L 765 393 L 763 389 Z M 510 494 L 511 494 L 512 492 L 513 492 L 523 483 L 543 473 L 546 473 L 547 472 L 550 472 L 551 471 L 554 471 L 555 470 L 560 470 L 561 469 L 583 469 L 584 470 L 591 470 L 592 471 L 595 471 L 596 472 L 599 472 L 600 473 L 603 473 L 604 474 L 606 474 L 607 475 L 612 476 L 626 483 L 628 485 L 632 487 L 641 495 L 642 495 L 648 501 L 648 502 L 651 505 L 651 506 L 655 511 L 657 516 L 658 516 L 658 513 L 659 512 L 659 509 L 660 508 L 661 503 L 666 493 L 668 491 L 669 488 L 674 482 L 674 481 L 685 470 L 686 470 L 689 467 L 690 467 L 695 463 L 699 461 L 701 461 L 704 459 L 706 459 L 707 458 L 710 458 L 711 457 L 714 457 L 715 456 L 730 456 L 731 457 L 736 457 L 737 458 L 742 459 L 752 464 L 758 469 L 759 469 L 765 475 L 766 477 L 767 477 L 767 476 L 766 475 L 766 473 L 765 472 L 765 469 L 763 466 L 763 464 L 754 446 L 752 444 L 752 443 L 750 441 L 750 440 L 748 438 L 746 434 L 737 424 L 737 423 L 726 412 L 725 412 L 721 408 L 717 406 L 714 403 L 706 399 L 704 397 L 690 390 L 688 390 L 685 388 L 683 388 L 677 385 L 674 385 L 673 384 L 670 384 L 669 383 L 666 383 L 665 382 L 660 382 L 659 381 L 651 381 L 650 380 L 631 380 L 630 381 L 622 381 L 621 382 L 616 382 L 615 383 L 612 383 L 611 384 L 604 385 L 603 386 L 601 386 L 600 387 L 595 388 L 592 390 L 590 390 L 574 398 L 572 400 L 571 400 L 569 402 L 565 404 L 558 410 L 557 410 L 540 427 L 540 428 L 534 435 L 534 436 L 528 444 L 526 449 L 524 451 L 523 453 L 523 455 L 518 464 L 518 466 L 515 472 L 515 475 L 514 476 L 514 478 L 513 479 L 513 482 L 511 486 L 511 490 L 510 491 Z M 746 373 L 745 374 L 745 380 L 744 381 L 744 389 L 743 390 L 743 398 L 742 399 L 751 408 L 751 405 L 752 404 L 752 396 L 753 395 L 753 386 L 754 385 L 754 378 L 749 374 Z M 703 354 L 701 355 L 698 358 L 697 358 L 693 362 L 692 362 L 687 367 L 688 368 L 690 368 L 691 369 L 696 370 L 699 372 L 701 372 L 702 370 L 702 362 L 703 361 Z M 722 347 L 719 347 L 718 348 L 716 348 L 712 350 L 712 356 L 711 357 L 711 363 L 710 364 L 710 371 L 709 372 L 709 376 L 717 381 L 718 381 L 718 379 L 719 378 L 719 370 L 720 369 L 720 361 L 721 360 L 721 352 L 722 351 Z M 731 346 L 730 347 L 731 348 L 730 349 L 730 357 L 729 358 L 729 365 L 728 366 L 728 373 L 727 374 L 727 382 L 726 383 L 726 387 L 727 387 L 735 393 L 735 387 L 736 386 L 736 380 L 737 379 L 737 371 L 738 370 L 738 364 L 739 363 L 739 352 L 738 350 L 735 347 L 733 346 Z" fill="#000000" fill-rule="evenodd" clip-rule="evenodd"/></svg>
