<svg width="88" height="93" viewBox="0 0 88 93" fill="none" xmlns="http://www.w3.org/2000/svg">
<g clip-path="url(#clip0_5_53)">
<path d="M66.0281 0H21.9719C9.83717 0 0 10.3961 0 23.2203V69.7797C0 82.6039 9.83717 93 21.9719 93H66.0281C78.1628 93 88 82.6039 88 69.7797V23.2203C88 10.3961 78.1628 0 66.0281 0Z" fill="url(#paint0_linear_5_53)"/>
<path d="M66.0281 0H21.9719C9.83717 0 0 10.3961 0 23.2203V69.7797C0 82.6039 9.83717 93 21.9719 93H66.0281C78.1628 93 88 82.6039 88 69.7797V23.2203C88 10.3961 78.1628 0 66.0281 0Z" fill="url(#paint1_radial_5_53)"/>
<path fill-rule="evenodd" clip-rule="evenodd" d="M44.7226 81.6845C38.122 81.6845 35.0545 80.6661 29.7227 76.5927C26.3501 81.1753 15.6703 84.7566 15.2046 78.6294C15.2046 74.03 14.241 70.1434 13.1489 65.9003C11.8481 60.6727 10.3705 54.8512 10.3705 46.416C10.3705 26.2698 26.0129 11.1135 44.546 11.1135C63.095 11.1135 77.6293 27.0166 77.6293 46.6027C77.6915 65.8858 62.9689 81.5816 44.7226 81.6845ZM44.9956 28.5271C35.97 28.0349 28.9357 34.6372 27.3779 44.9903C26.0931 53.5614 28.3737 63.9993 30.3169 64.5425C31.2484 64.7801 33.5931 62.7773 35.0545 61.2329C37.4711 62.9972 40.2852 64.0568 43.213 64.3048C52.565 64.7803 60.5561 57.256 61.1839 47.3835C61.5495 37.49 54.349 29.1103 44.9956 28.5441V28.5271Z" fill="white"/>
</g>
<defs>
<linearGradient id="paint0_linear_5_53" x1="10.3705" y1="70.7299" x2="88.6572" y2="48.8517" gradientUnits="userSpaceOnUse">
<stop stop-color="#44CCFF"/>
<stop offset="0.662" stop-color="#5533EE"/>
<stop offset="1" stop-color="#9933DD"/>
</linearGradient>
<radialGradient id="paint1_radial_5_53" cx="0" cy="0" r="1" gradientTransform="matrix(66.6879 88.146 -34.3658 29.0383 -2.09359 -40.8442)" gradientUnits="userSpaceOnUse">
<stop stop-color="#0000FF"/>
<stop offset="1" stop-opacity="0"/>
</radialGradient>
<clipPath id="clip0_5_53">
<rect width="88" height="93" fill="white"/>
</clipPath>
</defs>
</svg>
